<svg xmlns="http://www.w3.org/2000/svg" xmlns:xlink="http://www.w3.org/1999/xlink">
	<symbol id="heart">
		<path d="M10.311,17.996 L2.390,9.956 C1.363,8.914 0.798,7.528 0.798,6.054 C0.798,4.580 1.363,3.194 2.390,2.153 C4.510,0.001 7.959,0.003 10.077,2.153 L10.311,2.390 L10.544,2.153 C12.665,0.001 16.113,0.003 18.231,2.153 L18.231,2.153 C19.258,3.194 19.823,4.580 19.823,6.054 C19.823,7.528 19.258,8.914 18.231,9.956 L10.311,17.996 ZM6.233,2.543 C5.347,2.543 4.461,2.885 3.786,3.570 C3.132,4.234 2.772,5.115 2.772,6.054 C2.772,6.992 3.132,7.875 3.786,8.539 L10.311,15.162 L16.835,8.539 C17.489,7.875 17.849,6.992 17.849,6.054 C17.849,5.115 17.489,4.234 16.835,3.570 L16.835,3.570 C15.487,2.201 13.291,2.200 11.940,3.570 L10.311,5.224 L8.681,3.570 C8.006,2.885 7.120,2.543 6.233,2.543 Z">
		</path>
	</symbol>
	<symbol id="metro">
		<path class="brst0" d="M12.4 5.5l-2.4 4-2.4-4-2.8 7.8h2.6l1-2.7 1.6 3.2 1.6-3.2 1 2.7h2.6l-2.8-7.8z"></path>
		<path class="brst0" d="M10 19.5C4.8 19.5.5 15.2.5 10S4.8.5 10 .5s9.5 4.3 9.5 9.5-4.3 9.5-9.5 9.5zm0-18c-4.7 0-8.5 3.8-8.5 8.5s3.8 8.5 8.5 8.5 8.5-3.8 8.5-8.5-3.8-8.5-8.5-8.5z"></path>
	</symbol>
  	<symbol id="facebook">
    	<path d="M14.586,4L11.947,4A4.593,4.593,0,0,0,7.068,8.921V11.19H4.415A0.412,0.412,0,0,0,4,11.6v3.288a0.411,0.411,0,0,0,.415.408H7.068v8.3A0.411,0.411,0,0,0,7.482,24h3.461a0.411,0.411,0,0,0,.415-0.407v-8.3h3.1a0.411,0.411,0,0,0,.415-0.408V11.6a0.4,0.4,0,0,0-.121-0.288,0.419,0.419,0,0,0-.293-0.12h-3.1V9.267c0-.924.224-1.394,1.449-1.394h1.777A0.411,0.411,0,0,0,15,7.465V4.411A0.412,0.412,0,0,0,14.586,4Z">
    	</path>
  	</symbol>
  	<symbol id="twitter">
	    <path d="M19.559,4.239a6.6,6.6,0,0,1-2.086.8,3.283,3.283,0,0,0-5.678,2.245,3.313,3.313,0,0,0,.085.748A9.317,9.317,0,0,1,5.114,4.6,3.287,3.287,0,0,0,6.13,8.981a3.273,3.273,0,0,1-1.487-.412V8.61a3.286,3.286,0,0,0,2.632,3.219,3.256,3.256,0,0,1-1.483.056,3.287,3.287,0,0,0,3.066,2.281,6.589,6.589,0,0,1-4.076,1.4A6.881,6.881,0,0,1,4,15.525,9.335,9.335,0,0,0,18.37,7.659L18.36,7.234A6.609,6.609,0,0,0,20,5.537a6.551,6.551,0,0,1-1.885.517A3.3,3.3,0,0,0,19.559,4.239Z">
	    </path>
  	</symbol>
	<symbol id="youtube">
	    <path d="M22.259,5.116C21.573,4.323,20.307,4,17.889,4H9.111c-2.474,0-3.761.344-4.445,1.188C4,6.01,4,7.222,4,8.9v3.2c0,3.251.79,4.9,5.111,4.9h8.778c2.1,0,3.259-.285,4.011-0.984C22.671,15.3,23,14.126,23,12.1V8.9C23,7.131,22.948,5.911,22.259,5.116ZM16.2,10.941l-3.986,2.025a0.628,0.628,0,0,1-.6-0.018,0.593,0.593,0,0,1-.3-0.51V8.4a0.593,0.593,0,0,1,.295-0.51,0.628,0.628,0,0,1,.6-0.019L16.2,9.884A0.589,0.589,0,0,1,16.2,10.941Z">
	    </path>
  	</symbol>
  	<symbol id="instagram">
	    <path d="M14.908,20.5H6.916A6,6,0,0,1,.922,14.509V6.518A6,6,0,0,1,6.916.523h7.992A6,6,0,0,1,20.9,6.518v7.992A6,6,0,0,1,14.908,20.5ZM6.916,2.542A3.98,3.98,0,0,0,2.941,6.518v7.992a3.98,3.98,0,0,0,3.975,3.975h7.992a3.98,3.98,0,0,0,3.975-3.975V6.518a3.98,3.98,0,0,0-3.975-3.976H6.916Zm4,11.967a4,4,0,1,1,4-4A4,4,0,0,1,10.912,14.509Zm0-5.973a1.977,1.977,0,1,0,1.977,1.977A1.979,1.979,0,0,0,10.912,8.536Zm5.71-3.17a1.2,1.2,0,1,1-1.2-1.2A1.2,1.2,0,0,1,16.622,5.367Z">
	    </path>
  	</symbol>
</svg>
